PathFileType	4	(X/Y/Z)	C:\Users\Vitor Bertoli\OneDrive\Documents\Yolotestes\IMG_0214_Sports2D\IMG_0214_Sports2D_m_person00.trc
DataRate	CameraRate	NumFrames	NumMarkers	Units	OrigDataRate	OrigDataStartFrame	OrigNumFrames
120	120	10	22	m	120	79	633
Frame#	Time	Hip			RHip			RKnee			RAnkle			RBigToe			RSmallToe			RHeel			LHip			LKnee			LAnkle			LBigToe			LSmallToe			LHeel			Neck			Head			Nose			RShoulder			RElbow			RWrist			LShoulder			LElbow			LWrist		
		X1	Y1	Z1	X2	Y2	Z2	X3	Y3	Z3	X4	Y4	Z4	X5	Y5	Z5	X6	Y6	Z6	X7	Y7	Z7	X8	Y8	Z8	X9	Y9	Z9	X10	Y10	Z10	X11	Y11	Z11	X12	Y12	Z12	X13	Y13	Z13	X14	Y14	Z14	X15	Y15	Z15	X16	Y16	Z16	X17	Y17	Z17	X18	Y18	Z18	X19	Y19	Z19	X20	Y20	Z20	X21	Y21	Z21	X22	Y22	Z22
79	0.6583333333333333	1.8573216867502953	0.8705861293300259	0.0	1.7768494782813595	0.891611345064136	0.0	1.801078680231192	0.44672605103498836	0.0	1.4279998942835332	0.15177846265284084	0.0	1.5165474293015992	-0.01651682148405212	0.0	1.4641864206739357	-0.011605222083360517	0.0	1.344926973606896	0.1347696633585354	0.0	1.945582774897657	0.8538619083236652	0.0	2.1551076137656335	0.540407410564418	0.0	2.034749402667835	0.10516501727205223	0.0	2.2210967531302943	0.008227148742021904	0.0	2.202592263561997	0.023705412265070572	0.0	1.9820494692185202	0.04600932137899209	0.0	2.3181570903327637	1.1998721716435834	0.0	2.5870895059361416	1.3057322990512235	0.0	2.522254612235496	1.1909577816555912	0.0	2.17490091286712	1.189885470726437	0.0	1.987046955920022	0.9124307129044182	0.0	2.1187864491528203	0.654313566370993	0.0	2.2715387433776644	1.1735748356379228	0.0	2.0933519183871385	0.9391605885462716	0.0	2.116716849816297	0.6811901371623551	0.0
80	0.6666666666666666	1.8569679413807565	0.8705502863051457	0.0	1.7764425422430936	0.8916645770814183	0.0	1.800878553243872	0.4467495032640798	0.0	1.4279914525690303	0.15187174684613183	0.0	1.5163256948219883	-0.016382977655802572	0.0	1.4641262876360144	-0.01161272795662229	0.0	1.3450122393316237	0.13465800667943856	0.0	1.9453326069591486	0.8538152736928705	0.0	2.1549509181734976	0.5402598656876169	0.0	2.0346926538725927	0.1051443949636374	0.0	2.2209103970939856	0.008347004556451732	0.0	2.2023987204520266	0.023663437401841694	0.0	1.9820524502833952	0.0459336490492075	0.0	2.31810063750102	1.1999010905248386	0.0	2.586988057091585	1.3054418176664302	0.0	2.5224539290606938	1.1912084535113932	0.0	2.174939705979728	1.1899259001577502	0.0	1.987077110779656	0.912622170810721	0.0	2.1185149724220556	0.6543273173027887	0.0	2.2711150044380837	1.1740113852328553	0.0	2.0930133876867636	0.9392273265551953	0.0	2.116591305539455	0.6811041421556785	0.0
81	0.675	1.8566416734185158	0.87046039541812	0.0	1.7760519112544966	0.8917070528101871	0.0	1.8006657404969064	0.44680541367451065	0.0	1.4279585599070246	0.1519920719379941	0.0	1.5161461320805398	-0.01623889680443851	0.0	1.4641058659470791	-0.011594232227444518	0.0	1.3450566352712778	0.1345791792190388	0.0	1.945091304553304	0.8537506220138551	0.0	2.154814094402542	0.5400829991594452	0.0	2.0346518088188352	0.10512889018381331	0.0	2.2207483397267263	0.008505626836775346	0.0	2.202207599121066	0.02361050034478401	0.0	1.9820105841034104	0.04587402332899337	0.0	2.3180074907439043	1.1998906953960162	0.0	2.586882644122341	1.305179202281119	0.0	2.522665428112254	1.191423069575377	0.0	2.174944007539713	1.1899460470299688	0.0	1.987135030005089	0.9128846705292945	0.0	2.118253221685965	0.6543410488066866	0.0	2.270673215258676	1.1742806346530743	0.0	2.092724754465566	0.9392430129951678	0.0	2.1165550282095698	0.6809439674398946	0.0
82	0.6833333333333333	1.8563627165353318	0.8703163008975422	0.0	1.7757010949640597	0.8917314037539549	0.0	1.8004495515893062	0.4468821578293141	0.0	1.4279023610629376	0.15213895992800266	0.0	1.5160099228027044	-0.016094591207491658	0.0	1.4641161773502787	-0.011537544125262733	0.0	1.3450562257837686	0.13454476272387386	0.0	1.9448597781866144	0.8536650184845606	0.0	2.1546800392100622	0.5398756257906261	0.0	2.03461650373941	0.10510823511831782	0.0	2.2206213229767826	0.008660631431286573	0.0	2.202054648468909	0.023530603704120887	0.0	1.9819294764031734	0.04581230423037884	0.0	2.317884781252679	1.1998474044803646	0.0	2.5867832495802507	1.304959632029745	0.0	2.5228588307116278	1.19157361990922	0.0	2.1749178133515046	1.18993503855315	0.0	1.9872122737845312	0.9131659981342871	0.0	2.118017079307853	0.6543477544519419	0.0	2.2702257188363055	1.1744117323601178	0.0	2.092480802534202	0.9392326748270756	0.0	2.1165769197092175	0.6807432268060272	0.0
83	0.6916666666666667	1.8561391389015311	0.8701249395847759	0.0	1.7754082547272168	0.89172581518389	0.0	1.8002503228610252	0.4469784601198659	0.0	1.4278316305855263	0.15230640222285943	0.0	1.5159055758226092	-0.01596227512886286	0.0	1.4641427375309652	-0.01145148516785712	0.0	1.3450195545379258	0.13455643450927096	0.0	1.9446483480859345	0.8535553924954185	0.0	2.1545258632737325	0.5396474283548134	0.0	2.03458209492444	0.10508334903832026	0.0	2.220538181805317	0.00877911245016691	0.0	2.2019619780631343	0.023417063491165353	0.0	1.9818268841258722	0.045738358599899366	0.0	2.3177435345599453	1.1997798092030445	0.0	2.5866958878255564	1.3047860626152945	0.0	2.5230145524935073	1.1916398976690796	0.0	2.1748694149016408	1.1898902726866536	0.0	1.987295399713129	0.9134162882075835	0.0	2.117820637718631	0.6543440504550606	0.0	2.2697852897784037	1.1744532312878875	0.0	2.0922455322190765	0.9392439523784762	0.0	2.1166047549025535	0.6805516666083585	0.0
84	0.7	1.8559742782042512	0.8699111460609377	0.0	1.7751872457438083	0.8916874868973398	0.0	1.800087293582279	0.4470834654172491	0.0	1.4277576330703872	0.1524786870104	0.0	1.5158239430027771	-0.015846906618897635	0.0	1.4641765514820113	-0.011353242759973028	0.0	1.3449621688143372	0.13460496678902137	0.0	1.944463552199143	0.8534230516187773	0.0	2.154332803098305	0.5394221067825234	0.0	2.034546572392424	0.10505766490143614	0.0	2.2205085123110084	0.008855369064406511	0.0	2.2019327715584467	0.023276377225128785	0.0	1.981721158295498	0.04565114486262188	0.0	2.3175895634293227	1.1997020433085837	0.0	2.5866550515906463	1.3046546430802342	0.0	2.5231152025136248	1.1916298445933158	0.0	2.174838945476282	1.1898044276015567	0.0	1.987371634676991	0.9136021928828602	0.0	2.1176671543513357	0.6543277265905822	0.0	2.2693625656220635	1.1744448611445837	0.0	2.0919850168773504	0.9393207501825461	0.0	2.116613362239376	0.6803948933106644	0.0
85	0.7083333333333334	1.8558638236045226	0.8697005535373084	0.0	1.7750361349614574	0.8916199046442296	0.0	1.7999690503979604	0.4471735718336863	0.0	1.4276891931714444	0.15263614577555853	0.0	1.5157529165682264	-0.015748120118815247	0.0	1.464206712171955	-0.011255879746658742	0.0	1.3448964126390544	0.13467511956737852	0.0	1.9442932527802488	0.8532628857945806	0.0	2.1540961406397936	0.5392305199886569	0.0	2.034513318003184	0.1050315848033992	0.0	2.2205347339782957	0.00889366445761289	0.0	2.2019506239703857	0.023119544420332334	0.0	1.9816260514687467	0.045551387357875735	0.0	2.3174223245510746	1.1996267741921396	0.0	2.58668819604665	1.304559395557526	0.0	2.523150142803725	1.1915702760462235	0.0	2.1748732674045805	1.1896721021310337	0.0	1.9874343787036066	0.9137055811589698	0.0	2.1175554710257263	0.6543013721300188	0.0	2.268964790117226	1.174410468489061	0.0	2.0916802749283394	0.9394843579392335	0.0	2.1165958128023896	0.6802769526462442	0.0
86	0.7166666666666667	1.855792576647498	0.8695017566418983	0.0	1.7749323705532136	0.8915251441632712	0.0	1.799885901182594	0.4472239473155205	0.0	1.4276246877947396	0.1527578475181657	0.0	1.5156683458509346	-0.015667956829265257	0.0	1.464212203915196	-0.011168527859372848	0.0	1.3448225757769565	0.13474807698657656	0.0	1.9441155438241546	0.853063204178129	0.0	2.1538276135405403	0.5391013404323407	0.0	2.034491990282109	0.10500357311879291	0.0	2.2206056039100224	0.008884421222385912	0.0	2.2019909069457246	0.022952080708784028	0.0	1.9815493334924712	0.04544140271877275	0.0	2.317242215226517	1.199554050234365	0.0	2.586779402891748	1.3044946877876096	0.0	2.523125586887635	1.1914827424168608	0.0	2.1749803388089255	1.189502564408267	0.0	1.9874821223245205	0.9137174631497729	0.0	2.1174886488002587	0.6542744673526678	0.0	2.2685945216042924	1.1743641655169403	0.0	2.091315164060609	0.9397377711268116	0.0	2.1165387880296693	0.6802003007240807	0.0
87	0.725	1.855740882036213	0.8693149418602699	0.0	1.7748482870223596	0.8914113407462607	0.0	1.7998098672493603	0.44721597209693725	0.0	1.4275509328958236	0.1528223651218811	0.0	1.515547163188632	-0.015607216972082135	0.0	1.4641740238544512	-0.01109695128400158	0.0	1.3447318385152354	0.13480529491588245	0.0	1.9439186669305826	0.8528261989797336	0.0	2.153545388614148	0.539055644556725	0.0	2.0344882337231738	0.10497230490916812	0.0	2.2207017918905487	0.008811364305785514	0.0	2.202038464907041	0.022781226310525624	0.0	1.9814884357496494	0.04533228760043301	0.0	2.3170530268480305	1.1994736891422284	0.0	2.5869033079901698	1.304453634148428	0.0	2.5230515228906487	1.1913788373630347	0.0	2.1751316150572357	1.1893109630336594	0.0	1.987512540356394	0.9136391332608352	0.0	2.1174703196012676	0.6542578913096279	0.0	2.26825116764	1.1743079979554858	0.0	2.090884082452226	0.9400717811313078	0.0	2.116449209347019	0.6801567346378037	0.0
88	0.7333333333333333	1.855688473833535	0.8691439932069621	0.0	1.7747670192412877	0.8912953907882621	0.0	1.7997113713873982	0.4471431897389112	0.0	1.427455702385571	0.15281380057271418	0.0	1.5153850762482604	-0.01555700296090242	0.0	1.4640896938009387	-0.011039233241983668	0.0	1.3446193355042833	0.1348364453710664	0.0	1.9437036765300355	0.852574914277331	0.0	2.153262687508053	0.5391028554605158	0.0	2.0344983449775893	0.10493426512217273	0.0	2.2208073853309322	0.008670257397822836	0.0	2.2020946048726806	0.022624821753074044	0.0	1.9814312834393508	0.04524144290712395	0.0	2.316860823795244	1.1993787950373807	0.0	2.5870632216704537	1.3044260924494673	0.0	2.5229247553259793	1.1912700992331693	0.0	2.1752990882405494	1.1891059927642333	0.0	1.9875205623358758	0.9134837793926186	0.0	2.1174968372688863	0.6542563675459262	0.0	2.2679356990581585	1.1742321740916102	0.0	2.0904159606120047	0.9404602621794657	0.0	2.116379527056683	0.6801146784545641	0.0
